{"title":"The Frankenstein Chronicles S01E01 PROPER.PDTV.x264-TVCUK.mp4","uid":12751798,"size":448910602,"categoryP":"video","categoryS":"tv_shows","magnet":"?xt=urn:btih:da81ece1b6a918b00a350c923a9c4985aa7b13f6&amp;dn=The+Frankenstein+Chronicles+S01E01+PROPER.PDTV.x264-TVCUK.mp4&amp;tr=udp%3A%2F%2Ftracker.leechers-paradise.org%3A6969&amp;tr=udp%3A%2F%2Fzer0day.ch%3A1337&amp;tr=udp%3A%2F%2Fopen.demonii.com%3A1337&amp;tr=udp%3A%2F%2Ftracker.coppersurfer.tk%3A6969&amp;tr=udp%3A%2F%2Fexodus.desync.com%3A6969","seeders":1,"leechers":0,"uploader":"TlanImass","files":1,"time":1447387414,"description":"The Frankenstein Chronicles - Series 1, Episode 1\r\n\r\nA World Without God\r\nWhen the police arrest a gang of opium smugglers on the banks of the Thames, Inspector John Marlott makes a shocking discovery in the form of the body of a dead child washed up on the shore. He is ordered by Home Secretary Sir Robert Peel to lead the investigation, however details must remain confidential.\r\n\r\nOriginal Air Date: 11-Nov-2015\r\n\r\n\r\nCapper's Note:\r\nThis is a replacement recording for yesterday's torrent; apologies for the issues.\r\n\r\n\r\nVideo\r\nID : 1\r\nFormat : AVC\r\nFormat/Info : Advanced Video Codec\r\nFormat profile :   \r\nFormat settings, CABAC : Yes\r\nFormat settings, ReFrames : 4 frames\r\nCodec ID : avc1\r\nCodec ID/Info : Advanced Video Coding\r\nDuration : 47mn 17s\r\nBit rate : 1 100 Kbps\r\nWidth : 720 pixels\r\nHeight : 404 pixels\r\nDisplay aspect ratio : 16:9\r\nFrame rate mode : Variable\r\nFrame rate : 25.000 fps\r\nMinimum frame rate : 12.500 fps\r\nMaximum frame rate : 25.000 fps\r\nColor space : YUV\r\nChroma subsampling : 4:2:0\r\nBit depth : 8 bits\r\nScan type : Progressive\r\nBits/(Pixel*Frame) : 0.151\r\nStream size : 372 MiB (87%)\r\n\r\nAudio\r\nID : 2\r\nFormat : AAC\r\nFormat/Info : Advanced Audio Codec\r\nFormat profile : LC\r\nCodec ID : 40\r\nDuration : 47mn 17s\r\nBit rate mode : Variable\r\nBit rate : 160 Kbps\r\nChannel(s) : 2 channels\r\nChannel positions : Front: L R\r\nSampling rate : 48.0 KHz\r\nCompression mode : Lossy\r\nStream size : 54.0 MiB (13%)\r\nTitle : Stereo / Stereo\r\nLanguage : English","torrent":{"xt":"urn:btih:da81ece1b6a918b00a350c923a9c4985aa7b13f6","amp;dn":"The+Frankenstein+Chronicles+S01E01+PROPER.PDTV.x264-TVCUK.mp4","amp;tr":["udp%3A%2F%2Ftracker.leechers-paradise.org%3A6969","udp%3A%2F%2Fzer0day.ch%3A1337","udp%3A%2F%2Fopen.demonii.com%3A1337","udp%3A%2F%2Ftracker.coppersurfer.tk%3A6969","udp%3A%2F%2Fexodus.desync.com%3A6969"],"infoHash":"da81ece1b6a918b00a350c923a9c4985aa7b13f6","infoHashBuffer":{"type":"Buffer","data":[218,129,236,225,182,169,24,176,10,53,12,146,58,156,73,133,170,123,19,246]},"announce":[],"urlList":[]}}